<mxfile host="app.diagrams.net" modified="2022-02-16T14:51:03.752Z" agent="5.0 (X11)" etag="rXAxW0TH9T0PoqDbSwOI" version="16.5.6" type="github" pages="2">
  <diagram name="Page-1" id="58cdce13-f638-feb5-8d6f-7d28b1aa9fa0">
    <mxGraphModel dx="1422" dy="727" grid="1" gridSize="10" guides="1" tooltips="1" connect="1" arrows="1" fold="1" page="1" pageScale="1" pageWidth="1100" pageHeight="850" background="none" math="0" shadow="0">
      <root>
        <mxCell id="0" />
        <mxCell id="1" parent="0" />
        <mxCell id="382b91b5511bd0f7-1" value="" style="ellipse;html=1;shape=startState;fillColor=#000000;strokeColor=#ff0000;rounded=1;shadow=0;comic=0;labelBackgroundColor=none;fontFamily=Verdana;fontSize=12;fontColor=#000000;align=center;direction=south;" parent="1" vertex="1">
          <mxGeometry x="30" y="60" width="30" height="30" as="geometry" />
        </mxCell>
        <mxCell id="2a3bc250acf0617d-7" value="Ordering to Receiving a Cake" style="swimlane;whiteSpace=wrap;html=1;rounded=1;shadow=0;comic=0;labelBackgroundColor=none;strokeWidth=1;fontFamily=Verdana;fontSize=12;align=center;" parent="1" vertex="1">
          <mxGeometry x="20" y="620" width="1060" height="200" as="geometry" />
        </mxCell>
        <mxCell id="3cde6dad864a17aa-10" style="edgeStyle=elbowEdgeStyle;html=1;labelBackgroundColor=none;endArrow=open;endSize=8;strokeColor=#ff0000;fontFamily=Verdana;fontSize=12;align=left;" parent="2a3bc250acf0617d-7" source="382b91b5511bd0f7-8" target="3cde6dad864a17aa-1" edge="1">
          <mxGeometry relative="1" as="geometry" />
        </mxCell>
        <mxCell id="382b91b5511bd0f7-8" value="Cake Ordered" style="rounded=1;whiteSpace=wrap;html=1;arcSize=24;fillColor=#ffffc0;strokeColor=#ff0000;shadow=0;comic=0;labelBackgroundColor=none;fontFamily=Verdana;fontSize=12;fontColor=#000000;align=center;" parent="2a3bc250acf0617d-7" vertex="1">
          <mxGeometry x="50" y="65" width="120" height="60" as="geometry" />
        </mxCell>
        <mxCell id="3cde6dad864a17aa-9" style="edgeStyle=elbowEdgeStyle;html=1;labelBackgroundColor=none;endArrow=open;endSize=8;strokeColor=#ff0000;fontFamily=Verdana;fontSize=12;align=left;" parent="2a3bc250acf0617d-7" source="2a3bc250acf0617d-3" target="382b91b5511bd0f7-8" edge="1">
          <mxGeometry relative="1" as="geometry" />
        </mxCell>
        <mxCell id="2a3bc250acf0617d-3" value="" style="ellipse;html=1;shape=startState;fillColor=#000000;strokeColor=#ff0000;rounded=1;shadow=0;comic=0;labelBackgroundColor=none;fontFamily=Verdana;fontSize=12;fontColor=#000000;align=center;direction=south;" parent="2a3bc250acf0617d-7" vertex="1">
          <mxGeometry y="80" width="30" height="30" as="geometry" />
        </mxCell>
        <mxCell id="3cde6dad864a17aa-11" style="edgeStyle=elbowEdgeStyle;html=1;labelBackgroundColor=none;endArrow=open;endSize=8;strokeColor=#ff0000;fontFamily=Verdana;fontSize=12;align=left;" parent="2a3bc250acf0617d-7" source="3cde6dad864a17aa-1" target="3cde6dad864a17aa-2" edge="1">
          <mxGeometry relative="1" as="geometry" />
        </mxCell>
        <mxCell id="3cde6dad864a17aa-1" value="Order Verified" style="rounded=1;whiteSpace=wrap;html=1;arcSize=24;fillColor=#ffffc0;strokeColor=#ff0000;shadow=0;comic=0;labelBackgroundColor=none;fontFamily=Verdana;fontSize=12;fontColor=#000000;align=center;" parent="2a3bc250acf0617d-7" vertex="1">
          <mxGeometry x="190" y="65" width="120" height="60" as="geometry" />
        </mxCell>
        <mxCell id="3cde6dad864a17aa-2" value="Cake Baked" style="rounded=1;whiteSpace=wrap;html=1;arcSize=24;fillColor=#ffffc0;strokeColor=#ff0000;shadow=0;comic=0;labelBackgroundColor=none;fontFamily=Verdana;fontSize=12;fontColor=#000000;align=center;" parent="2a3bc250acf0617d-7" vertex="1">
          <mxGeometry x="330" y="65" width="120" height="60" as="geometry" />
        </mxCell>
        <mxCell id="2KeAI8pGitg1TJ_p0Ek2-7" value="Cake Boxed" style="whiteSpace=wrap;html=1;fontFamily=Verdana;fillColor=#ffffc0;strokeColor=#ff0000;fontColor=#000000;rounded=1;arcSize=24;shadow=0;comic=0;labelBackgroundColor=none;" vertex="1" parent="2a3bc250acf0617d-7">
          <mxGeometry x="470" y="65" width="120" height="60" as="geometry" />
        </mxCell>
        <mxCell id="2KeAI8pGitg1TJ_p0Ek2-8" value="" style="edgeStyle=orthogonalEdgeStyle;rounded=0;orthogonalLoop=1;jettySize=auto;html=1;fillColor=#fa6800;strokeColor=#C73500;" edge="1" parent="2a3bc250acf0617d-7" source="3cde6dad864a17aa-2" target="2KeAI8pGitg1TJ_p0Ek2-7">
          <mxGeometry relative="1" as="geometry" />
        </mxCell>
        <mxCell id="2KeAI8pGitg1TJ_p0Ek2-9" value="&lt;div&gt;Cake Picked up&lt;/div&gt;" style="whiteSpace=wrap;html=1;fontFamily=Verdana;fillColor=#ffffc0;strokeColor=#ff0000;fontColor=#000000;rounded=1;arcSize=24;shadow=0;comic=0;labelBackgroundColor=none;" vertex="1" parent="2a3bc250acf0617d-7">
          <mxGeometry x="610" y="65" width="120" height="60" as="geometry" />
        </mxCell>
        <mxCell id="2KeAI8pGitg1TJ_p0Ek2-10" value="" style="edgeStyle=orthogonalEdgeStyle;rounded=0;orthogonalLoop=1;jettySize=auto;html=1;" edge="1" parent="2a3bc250acf0617d-7" source="2KeAI8pGitg1TJ_p0Ek2-7" target="2KeAI8pGitg1TJ_p0Ek2-9">
          <mxGeometry relative="1" as="geometry" />
        </mxCell>
        <mxCell id="2KeAI8pGitg1TJ_p0Ek2-11" value="Cake Transported" style="whiteSpace=wrap;html=1;fontFamily=Verdana;fillColor=#ffffc0;strokeColor=#ff0000;fontColor=#000000;rounded=1;arcSize=24;shadow=0;comic=0;labelBackgroundColor=none;" vertex="1" parent="2a3bc250acf0617d-7">
          <mxGeometry x="750" y="65" width="120" height="60" as="geometry" />
        </mxCell>
        <mxCell id="2KeAI8pGitg1TJ_p0Ek2-12" value="" style="edgeStyle=orthogonalEdgeStyle;rounded=0;orthogonalLoop=1;jettySize=auto;html=1;" edge="1" parent="2a3bc250acf0617d-7" source="2KeAI8pGitg1TJ_p0Ek2-9" target="2KeAI8pGitg1TJ_p0Ek2-11">
          <mxGeometry relative="1" as="geometry" />
        </mxCell>
        <mxCell id="2KeAI8pGitg1TJ_p0Ek2-13" value="Cake Delivered" style="whiteSpace=wrap;html=1;fontFamily=Verdana;fillColor=#ffffc0;strokeColor=#ff0000;fontColor=#000000;rounded=1;arcSize=24;shadow=0;comic=0;labelBackgroundColor=none;" vertex="1" parent="2a3bc250acf0617d-7">
          <mxGeometry x="890" y="65" width="120" height="60" as="geometry" />
        </mxCell>
        <mxCell id="2KeAI8pGitg1TJ_p0Ek2-14" value="" style="edgeStyle=orthogonalEdgeStyle;rounded=0;orthogonalLoop=1;jettySize=auto;html=1;" edge="1" parent="2a3bc250acf0617d-7" source="2KeAI8pGitg1TJ_p0Ek2-11" target="2KeAI8pGitg1TJ_p0Ek2-13">
          <mxGeometry relative="1" as="geometry" />
        </mxCell>
        <mxCell id="24f968d109e7d6b4-3" value="" style="ellipse;html=1;shape=endState;fillColor=#000000;strokeColor=#ff0000;rounded=1;shadow=0;comic=0;labelBackgroundColor=none;fontFamily=Verdana;fontSize=12;fontColor=#000000;align=center;" parent="2a3bc250acf0617d-7" vertex="1">
          <mxGeometry x="1030" y="80" width="30" height="30" as="geometry" />
        </mxCell>
        <mxCell id="_02UnDmYzXgJwBSvLe6U-20" value="" style="edgeStyle=orthogonalEdgeStyle;rounded=0;orthogonalLoop=1;jettySize=auto;html=1;" edge="1" parent="2a3bc250acf0617d-7" source="2KeAI8pGitg1TJ_p0Ek2-13" target="24f968d109e7d6b4-3">
          <mxGeometry relative="1" as="geometry" />
        </mxCell>
        <mxCell id="2a3bc250acf0617d-9" style="edgeStyle=orthogonalEdgeStyle;html=1;labelBackgroundColor=none;endArrow=open;endSize=8;strokeColor=#ff0000;fontFamily=Verdana;fontSize=12;align=left;entryX=0;entryY=0.5;entryDx=0;entryDy=0;" parent="1" source="382b91b5511bd0f7-1" target="2KeAI8pGitg1TJ_p0Ek2-19" edge="1">
          <mxGeometry relative="1" as="geometry">
            <mxPoint x="100" y="75" as="targetPoint" />
          </mxGeometry>
        </mxCell>
        <mxCell id="2KeAI8pGitg1TJ_p0Ek2-22" value="" style="edgeStyle=orthogonalEdgeStyle;rounded=0;orthogonalLoop=1;jettySize=auto;html=1;" edge="1" parent="1" source="2KeAI8pGitg1TJ_p0Ek2-19" target="2KeAI8pGitg1TJ_p0Ek2-21">
          <mxGeometry relative="1" as="geometry" />
        </mxCell>
        <mxCell id="2KeAI8pGitg1TJ_p0Ek2-19" value="Open App" style="whiteSpace=wrap;html=1;fillColor=#ffffc0;strokeColor=#ff0000;fontColor=#000000;rounded=1;arcSize=40;" vertex="1" parent="1">
          <mxGeometry x="155" y="45" width="120" height="60" as="geometry" />
        </mxCell>
        <mxCell id="2KeAI8pGitg1TJ_p0Ek2-26" value="" style="edgeStyle=orthogonalEdgeStyle;rounded=0;orthogonalLoop=1;jettySize=auto;html=1;" edge="1" parent="1" source="2KeAI8pGitg1TJ_p0Ek2-21" target="2KeAI8pGitg1TJ_p0Ek2-25">
          <mxGeometry relative="1" as="geometry" />
        </mxCell>
        <mxCell id="2KeAI8pGitg1TJ_p0Ek2-21" value="Idle" style="whiteSpace=wrap;html=1;fillColor=#ffffc0;strokeColor=#ff0000;fontColor=#000000;rounded=1;arcSize=40;" vertex="1" parent="1">
          <mxGeometry x="155" y="160" width="120" height="60" as="geometry" />
        </mxCell>
        <mxCell id="2KeAI8pGitg1TJ_p0Ek2-68" value="" style="edgeStyle=orthogonalEdgeStyle;rounded=0;orthogonalLoop=1;jettySize=auto;html=1;entryX=0;entryY=0.5;entryDx=0;entryDy=0;" edge="1" parent="1" source="2KeAI8pGitg1TJ_p0Ek2-25" target="2KeAI8pGitg1TJ_p0Ek2-67">
          <mxGeometry relative="1" as="geometry">
            <Array as="points">
              <mxPoint x="300" y="310" />
              <mxPoint x="300" y="70" />
              <mxPoint x="345" y="70" />
            </Array>
          </mxGeometry>
        </mxCell>
        <mxCell id="2KeAI8pGitg1TJ_p0Ek2-25" value="Cake Ordered" style="whiteSpace=wrap;html=1;fillColor=#ffffc0;strokeColor=#ff0000;fontColor=#000000;rounded=1;arcSize=40;" vertex="1" parent="1">
          <mxGeometry x="155" y="280" width="120" height="60" as="geometry" />
        </mxCell>
        <mxCell id="2KeAI8pGitg1TJ_p0Ek2-81" value="" style="edgeStyle=orthogonalEdgeStyle;rounded=0;orthogonalLoop=1;jettySize=auto;html=1;" edge="1" parent="1" source="2KeAI8pGitg1TJ_p0Ek2-31" target="2KeAI8pGitg1TJ_p0Ek2-40">
          <mxGeometry relative="1" as="geometry">
            <Array as="points">
              <mxPoint x="320" y="255" />
              <mxPoint x="320" y="390" />
            </Array>
          </mxGeometry>
        </mxCell>
        <mxCell id="2KeAI8pGitg1TJ_p0Ek2-83" value="no" style="edgeLabel;html=1;align=center;verticalAlign=middle;resizable=0;points=[];" vertex="1" connectable="0" parent="2KeAI8pGitg1TJ_p0Ek2-81">
          <mxGeometry x="-0.6727" relative="1" as="geometry">
            <mxPoint as="offset" />
          </mxGeometry>
        </mxCell>
        <mxCell id="_02UnDmYzXgJwBSvLe6U-2" value="" style="edgeStyle=orthogonalEdgeStyle;rounded=0;orthogonalLoop=1;jettySize=auto;html=1;" edge="1" parent="1" source="2KeAI8pGitg1TJ_p0Ek2-31" target="_02UnDmYzXgJwBSvLe6U-1">
          <mxGeometry relative="1" as="geometry">
            <Array as="points">
              <mxPoint x="480" y="255" />
              <mxPoint x="480" y="255" />
            </Array>
          </mxGeometry>
        </mxCell>
        <mxCell id="_02UnDmYzXgJwBSvLe6U-3" value="yes" style="edgeLabel;html=1;align=center;verticalAlign=middle;resizable=0;points=[];" vertex="1" connectable="0" parent="_02UnDmYzXgJwBSvLe6U-2">
          <mxGeometry x="-0.275" y="1" relative="1" as="geometry">
            <mxPoint as="offset" />
          </mxGeometry>
        </mxCell>
        <mxCell id="2KeAI8pGitg1TJ_p0Ek2-31" value="Customer Ok?" style="rhombus;whiteSpace=wrap;html=1;fillColor=#ffffc0;strokeColor=#ff0000;" vertex="1" parent="1">
          <mxGeometry x="355" y="220" width="100" height="70" as="geometry" />
        </mxCell>
        <mxCell id="2KeAI8pGitg1TJ_p0Ek2-43" value="" style="edgeStyle=orthogonalEdgeStyle;rounded=0;orthogonalLoop=1;jettySize=auto;html=1;entryX=0;entryY=0.5;entryDx=0;entryDy=0;" edge="1" parent="1" source="2KeAI8pGitg1TJ_p0Ek2-40" target="2KeAI8pGitg1TJ_p0Ek2-21">
          <mxGeometry relative="1" as="geometry">
            <mxPoint x="140" y="180" as="targetPoint" />
            <Array as="points">
              <mxPoint x="90" y="190" />
            </Array>
          </mxGeometry>
        </mxCell>
        <mxCell id="2KeAI8pGitg1TJ_p0Ek2-40" value="Order Cancelled" style="whiteSpace=wrap;html=1;fillColor=#ffffc0;strokeColor=#ff0000;fontColor=#000000;rounded=1;arcSize=40;" vertex="1" parent="1">
          <mxGeometry x="30" y="350" width="120" height="60" as="geometry" />
        </mxCell>
        <mxCell id="2KeAI8pGitg1TJ_p0Ek2-50" value="" style="edgeStyle=orthogonalEdgeStyle;rounded=0;orthogonalLoop=1;jettySize=auto;html=1;" edge="1" parent="1" source="2KeAI8pGitg1TJ_p0Ek2-46" target="2KeAI8pGitg1TJ_p0Ek2-49">
          <mxGeometry relative="1" as="geometry" />
        </mxCell>
        <mxCell id="2KeAI8pGitg1TJ_p0Ek2-46" value="Order Sent to Baker" style="whiteSpace=wrap;html=1;fillColor=#ffffc0;strokeColor=#ff0000;fontColor=#000000;rounded=1;arcSize=40;" vertex="1" parent="1">
          <mxGeometry x="340" y="330" width="120" height="60" as="geometry" />
        </mxCell>
        <mxCell id="2KeAI8pGitg1TJ_p0Ek2-58" value="" style="edgeStyle=orthogonalEdgeStyle;rounded=0;orthogonalLoop=1;jettySize=auto;html=1;" edge="1" parent="1" source="2KeAI8pGitg1TJ_p0Ek2-49" target="2KeAI8pGitg1TJ_p0Ek2-55">
          <mxGeometry relative="1" as="geometry" />
        </mxCell>
        <mxCell id="2KeAI8pGitg1TJ_p0Ek2-49" value="Supplies Checked" style="whiteSpace=wrap;html=1;fillColor=#ffffc0;strokeColor=#ff0000;fontColor=#000000;rounded=1;arcSize=40;" vertex="1" parent="1">
          <mxGeometry x="340" y="425" width="120" height="60" as="geometry" />
        </mxCell>
        <mxCell id="2KeAI8pGitg1TJ_p0Ek2-84" value="" style="edgeStyle=orthogonalEdgeStyle;rounded=0;orthogonalLoop=1;jettySize=auto;html=1;" edge="1" parent="1" source="2KeAI8pGitg1TJ_p0Ek2-55" target="2KeAI8pGitg1TJ_p0Ek2-67">
          <mxGeometry relative="1" as="geometry">
            <Array as="points">
              <mxPoint x="610" y="100" />
            </Array>
          </mxGeometry>
        </mxCell>
        <mxCell id="2KeAI8pGitg1TJ_p0Ek2-85" value="no" style="edgeLabel;html=1;align=center;verticalAlign=middle;resizable=0;points=[];" vertex="1" connectable="0" parent="2KeAI8pGitg1TJ_p0Ek2-84">
          <mxGeometry x="-0.7151" y="3" relative="1" as="geometry">
            <mxPoint as="offset" />
          </mxGeometry>
        </mxCell>
        <mxCell id="2KeAI8pGitg1TJ_p0Ek2-89" value="" style="edgeStyle=orthogonalEdgeStyle;rounded=0;orthogonalLoop=1;jettySize=auto;html=1;" edge="1" parent="1" source="2KeAI8pGitg1TJ_p0Ek2-55" target="2KeAI8pGitg1TJ_p0Ek2-86">
          <mxGeometry relative="1" as="geometry">
            <Array as="points">
              <mxPoint x="610" y="500" />
              <mxPoint x="410" y="500" />
            </Array>
          </mxGeometry>
        </mxCell>
        <mxCell id="2KeAI8pGitg1TJ_p0Ek2-90" value="yes" style="edgeLabel;html=1;align=center;verticalAlign=middle;resizable=0;points=[];" vertex="1" connectable="0" parent="2KeAI8pGitg1TJ_p0Ek2-89">
          <mxGeometry x="0.0743" y="3" relative="1" as="geometry">
            <mxPoint as="offset" />
          </mxGeometry>
        </mxCell>
        <mxCell id="2KeAI8pGitg1TJ_p0Ek2-55" value="Sufficient Supplies" style="rhombus;whiteSpace=wrap;html=1;fillColor=#ffffc0;strokeColor=#ff0000;" vertex="1" parent="1">
          <mxGeometry x="570" y="425" width="80" height="60" as="geometry" />
        </mxCell>
        <mxCell id="2KeAI8pGitg1TJ_p0Ek2-105" value="" style="edgeStyle=orthogonalEdgeStyle;rounded=0;orthogonalLoop=1;jettySize=auto;html=1;" edge="1" parent="1" source="2KeAI8pGitg1TJ_p0Ek2-67" target="2KeAI8pGitg1TJ_p0Ek2-104">
          <mxGeometry relative="1" as="geometry" />
        </mxCell>
        <mxCell id="2KeAI8pGitg1TJ_p0Ek2-67" value="Operations Notified" style="whiteSpace=wrap;html=1;fillColor=#ffffc0;strokeColor=#ff0000;fontColor=#000000;rounded=1;arcSize=40;" vertex="1" parent="1">
          <mxGeometry x="345" y="25" width="120" height="100" as="geometry" />
        </mxCell>
        <mxCell id="2KeAI8pGitg1TJ_p0Ek2-92" value="" style="edgeStyle=orthogonalEdgeStyle;rounded=0;orthogonalLoop=1;jettySize=auto;html=1;" edge="1" parent="1" source="2KeAI8pGitg1TJ_p0Ek2-86" target="2KeAI8pGitg1TJ_p0Ek2-91">
          <mxGeometry relative="1" as="geometry">
            <Array as="points">
              <mxPoint x="405" y="570" />
            </Array>
          </mxGeometry>
        </mxCell>
        <mxCell id="2KeAI8pGitg1TJ_p0Ek2-86" value="Cake Baked" style="rounded=1;whiteSpace=wrap;html=1;arcSize=40;fontColor=#000000;fillColor=#ffffc0;strokeColor=#ff0000;" vertex="1" parent="1">
          <mxGeometry x="340" y="550" width="120" height="60" as="geometry" />
        </mxCell>
        <mxCell id="_02UnDmYzXgJwBSvLe6U-18" value="" style="edgeStyle=orthogonalEdgeStyle;rounded=0;orthogonalLoop=1;jettySize=auto;html=1;" edge="1" parent="1" source="2KeAI8pGitg1TJ_p0Ek2-91" target="_02UnDmYzXgJwBSvLe6U-17">
          <mxGeometry relative="1" as="geometry" />
        </mxCell>
        <mxCell id="2KeAI8pGitg1TJ_p0Ek2-91" value="Cake Boxed" style="rounded=1;whiteSpace=wrap;html=1;arcSize=40;fontColor=#000000;fillColor=#ffffc0;strokeColor=#ff0000;" vertex="1" parent="1">
          <mxGeometry x="490" y="540" width="120" height="60" as="geometry" />
        </mxCell>
        <mxCell id="2KeAI8pGitg1TJ_p0Ek2-95" value="" style="edgeStyle=orthogonalEdgeStyle;rounded=0;orthogonalLoop=1;jettySize=auto;html=1;" edge="1" parent="1" source="2KeAI8pGitg1TJ_p0Ek2-93" target="2KeAI8pGitg1TJ_p0Ek2-67">
          <mxGeometry relative="1" as="geometry">
            <Array as="points">
              <mxPoint x="740" y="75" />
            </Array>
          </mxGeometry>
        </mxCell>
        <mxCell id="2KeAI8pGitg1TJ_p0Ek2-97" value="" style="edgeStyle=orthogonalEdgeStyle;rounded=0;orthogonalLoop=1;jettySize=auto;html=1;" edge="1" parent="1" source="2KeAI8pGitg1TJ_p0Ek2-93" target="2KeAI8pGitg1TJ_p0Ek2-96">
          <mxGeometry relative="1" as="geometry">
            <Array as="points">
              <mxPoint x="850" y="340" />
              <mxPoint x="850" y="340" />
            </Array>
          </mxGeometry>
        </mxCell>
        <mxCell id="2KeAI8pGitg1TJ_p0Ek2-93" value="Cake Picked Up" style="rounded=1;whiteSpace=wrap;html=1;arcSize=40;fontColor=#000000;fillColor=#ffffc0;strokeColor=#ff0000;" vertex="1" parent="1">
          <mxGeometry x="680" y="310" width="120" height="60" as="geometry" />
        </mxCell>
        <mxCell id="2KeAI8pGitg1TJ_p0Ek2-99" value="" style="edgeStyle=orthogonalEdgeStyle;rounded=0;orthogonalLoop=1;jettySize=auto;html=1;" edge="1" parent="1" source="2KeAI8pGitg1TJ_p0Ek2-96" target="2KeAI8pGitg1TJ_p0Ek2-98">
          <mxGeometry relative="1" as="geometry">
            <Array as="points">
              <mxPoint x="950" y="340" />
            </Array>
          </mxGeometry>
        </mxCell>
        <mxCell id="2KeAI8pGitg1TJ_p0Ek2-96" value="Cake in transport" style="rounded=1;whiteSpace=wrap;html=1;arcSize=40;fontColor=#000000;fillColor=#ffffc0;strokeColor=#ff0000;" vertex="1" parent="1">
          <mxGeometry x="820" y="310" width="120" height="60" as="geometry" />
        </mxCell>
        <mxCell id="2KeAI8pGitg1TJ_p0Ek2-101" value="" style="edgeStyle=orthogonalEdgeStyle;rounded=0;orthogonalLoop=1;jettySize=auto;html=1;" edge="1" parent="1" source="2KeAI8pGitg1TJ_p0Ek2-98" target="2KeAI8pGitg1TJ_p0Ek2-100">
          <mxGeometry relative="1" as="geometry" />
        </mxCell>
        <mxCell id="2KeAI8pGitg1TJ_p0Ek2-98" value="Cake Arrived" style="rounded=1;whiteSpace=wrap;html=1;arcSize=40;fontColor=#000000;fillColor=#ffffc0;strokeColor=#ff0000;" vertex="1" parent="1">
          <mxGeometry x="930" y="530" width="120" height="60" as="geometry" />
        </mxCell>
        <mxCell id="2KeAI8pGitg1TJ_p0Ek2-102" value="" style="edgeStyle=orthogonalEdgeStyle;rounded=0;orthogonalLoop=1;jettySize=auto;html=1;" edge="1" parent="1" source="2KeAI8pGitg1TJ_p0Ek2-100" target="2KeAI8pGitg1TJ_p0Ek2-67">
          <mxGeometry relative="1" as="geometry">
            <Array as="points">
              <mxPoint x="980" y="50" />
            </Array>
          </mxGeometry>
        </mxCell>
        <mxCell id="2KeAI8pGitg1TJ_p0Ek2-100" value="Customer Verify Delivery" style="rounded=1;whiteSpace=wrap;html=1;arcSize=40;fontColor=#000000;fillColor=#ffffc0;strokeColor=#ff0000;" vertex="1" parent="1">
          <mxGeometry x="930" y="65" width="120" height="60" as="geometry" />
        </mxCell>
        <mxCell id="2KeAI8pGitg1TJ_p0Ek2-106" value="" style="edgeStyle=orthogonalEdgeStyle;rounded=0;orthogonalLoop=1;jettySize=auto;html=1;" edge="1" parent="1" source="2KeAI8pGitg1TJ_p0Ek2-104" target="2KeAI8pGitg1TJ_p0Ek2-31">
          <mxGeometry relative="1" as="geometry" />
        </mxCell>
        <mxCell id="2KeAI8pGitg1TJ_p0Ek2-104" value="Verify with Customer" style="whiteSpace=wrap;html=1;fillColor=#ffffc0;strokeColor=#ff0000;fontColor=#000000;rounded=1;arcSize=40;" vertex="1" parent="1">
          <mxGeometry x="345" y="140" width="120" height="60" as="geometry" />
        </mxCell>
        <mxCell id="2KeAI8pGitg1TJ_p0Ek2-107" value="" style="shape=umlDestroy;whiteSpace=wrap;html=1;strokeWidth=3;" vertex="1" parent="1">
          <mxGeometry x="540" y="126" width="20" height="20" as="geometry" />
        </mxCell>
        <mxCell id="_02UnDmYzXgJwBSvLe6U-4" value="" style="edgeStyle=orthogonalEdgeStyle;rounded=0;orthogonalLoop=1;jettySize=auto;html=1;" edge="1" parent="1" source="_02UnDmYzXgJwBSvLe6U-1" target="2KeAI8pGitg1TJ_p0Ek2-46">
          <mxGeometry relative="1" as="geometry">
            <Array as="points">
              <mxPoint x="550" y="360" />
            </Array>
          </mxGeometry>
        </mxCell>
        <mxCell id="_02UnDmYzXgJwBSvLe6U-5" value="no" style="edgeLabel;html=1;align=center;verticalAlign=middle;resizable=0;points=[];" vertex="1" connectable="0" parent="_02UnDmYzXgJwBSvLe6U-4">
          <mxGeometry x="-0.6903" relative="1" as="geometry">
            <mxPoint as="offset" />
          </mxGeometry>
        </mxCell>
        <mxCell id="_02UnDmYzXgJwBSvLe6U-13" value="" style="edgeStyle=orthogonalEdgeStyle;rounded=0;orthogonalLoop=1;jettySize=auto;html=1;" edge="1" parent="1" source="_02UnDmYzXgJwBSvLe6U-1">
          <mxGeometry relative="1" as="geometry">
            <mxPoint x="550" y="140" as="targetPoint" />
          </mxGeometry>
        </mxCell>
        <mxCell id="_02UnDmYzXgJwBSvLe6U-1" value="&lt;div&gt;Cake already&lt;/div&gt;&lt;div&gt;completed?&lt;br&gt;&lt;/div&gt;" style="rhombus;whiteSpace=wrap;html=1;fillColor=#ffffc0;strokeColor=#ff0000;" vertex="1" parent="1">
          <mxGeometry x="500" y="220" width="100" height="70" as="geometry" />
        </mxCell>
        <mxCell id="_02UnDmYzXgJwBSvLe6U-16" value="&lt;div&gt;yes&lt;/div&gt;" style="text;html=1;align=center;verticalAlign=middle;resizable=0;points=[];autosize=1;strokeColor=none;fillColor=none;" vertex="1" parent="1">
          <mxGeometry x="547" y="180" width="30" height="20" as="geometry" />
        </mxCell>
        <mxCell id="_02UnDmYzXgJwBSvLe6U-19" value="" style="edgeStyle=orthogonalEdgeStyle;rounded=0;orthogonalLoop=1;jettySize=auto;html=1;" edge="1" parent="1" source="_02UnDmYzXgJwBSvLe6U-17" target="2KeAI8pGitg1TJ_p0Ek2-93">
          <mxGeometry relative="1" as="geometry" />
        </mxCell>
        <mxCell id="_02UnDmYzXgJwBSvLe6U-17" value="Deliverer notified" style="rounded=1;whiteSpace=wrap;html=1;arcSize=40;fontColor=#000000;fillColor=#ffffc0;strokeColor=#ff0000;" vertex="1" parent="1">
          <mxGeometry x="680" y="540" width="120" height="60" as="geometry" />
        </mxCell>
      </root>
    </mxGraphModel>
  </diagram>
  <diagram id="pv4WSlmRQEOIb00NYwJj" name="Page-2">
    <mxGraphModel dx="2188" dy="1118" grid="1" gridSize="10" guides="1" tooltips="1" connect="1" arrows="1" fold="1" page="1" pageScale="1" pageWidth="3000" pageHeight="1000" math="0" shadow="0">
      <root>
        <mxCell id="6HYaSR4sAWEqXXqdwUCk-0" />
        <mxCell id="6HYaSR4sAWEqXXqdwUCk-1" parent="6HYaSR4sAWEqXXqdwUCk-0" />
        <mxCell id="C12_iZIxtaX92C0jbHGQ-1" value="" style="edgeStyle=orthogonalEdgeStyle;rounded=0;orthogonalLoop=1;jettySize=auto;html=1;" edge="1" parent="6HYaSR4sAWEqXXqdwUCk-1" source="4E1fSC2S83Ol9o_Z6Cej-0" target="C12_iZIxtaX92C0jbHGQ-0">
          <mxGeometry relative="1" as="geometry" />
        </mxCell>
        <mxCell id="4E1fSC2S83Ol9o_Z6Cej-0" value="CUSTOMER" style="rounded=0;whiteSpace=wrap;html=1;fillColor=#e1d5e7;strokeColor=#9673a6;" vertex="1" parent="6HYaSR4sAWEqXXqdwUCk-1">
          <mxGeometry x="80" y="40" width="120" height="60" as="geometry" />
        </mxCell>
        <mxCell id="C12_iZIxtaX92C0jbHGQ-9" value="" style="edgeStyle=orthogonalEdgeStyle;rounded=0;orthogonalLoop=1;jettySize=auto;html=1;" edge="1" parent="6HYaSR4sAWEqXXqdwUCk-1" source="4E1fSC2S83Ol9o_Z6Cej-1" target="C12_iZIxtaX92C0jbHGQ-8">
          <mxGeometry relative="1" as="geometry" />
        </mxCell>
        <mxCell id="4E1fSC2S83Ol9o_Z6Cej-1" value="CAKE COMPANY&lt;br&gt;OPERATIONS" style="rounded=0;whiteSpace=wrap;html=1;fillColor=#e1d5e7;strokeColor=#9673a6;" vertex="1" parent="6HYaSR4sAWEqXXqdwUCk-1">
          <mxGeometry x="490" y="40" width="120" height="60" as="geometry" />
        </mxCell>
        <mxCell id="C12_iZIxtaX92C0jbHGQ-25" value="" style="edgeStyle=orthogonalEdgeStyle;rounded=0;orthogonalLoop=1;jettySize=auto;html=1;" edge="1" parent="6HYaSR4sAWEqXXqdwUCk-1" source="4E1fSC2S83Ol9o_Z6Cej-2" target="C12_iZIxtaX92C0jbHGQ-24">
          <mxGeometry relative="1" as="geometry" />
        </mxCell>
        <mxCell id="4E1fSC2S83Ol9o_Z6Cej-2" value="BAKERS" style="rounded=0;whiteSpace=wrap;html=1;fillColor=#e1d5e7;strokeColor=#9673a6;" vertex="1" parent="6HYaSR4sAWEqXXqdwUCk-1">
          <mxGeometry x="1080" y="40" width="120" height="60" as="geometry" />
        </mxCell>
        <mxCell id="C12_iZIxtaX92C0jbHGQ-39" value="" style="edgeStyle=orthogonalEdgeStyle;rounded=0;orthogonalLoop=1;jettySize=auto;html=1;" edge="1" parent="6HYaSR4sAWEqXXqdwUCk-1" source="4E1fSC2S83Ol9o_Z6Cej-3" target="C12_iZIxtaX92C0jbHGQ-38">
          <mxGeometry relative="1" as="geometry" />
        </mxCell>
        <mxCell id="4E1fSC2S83Ol9o_Z6Cej-3" value="BAKERS" style="rounded=0;whiteSpace=wrap;html=1;fillColor=#e1d5e7;strokeColor=#9673a6;" vertex="1" parent="6HYaSR4sAWEqXXqdwUCk-1">
          <mxGeometry x="1410" y="40" width="120" height="60" as="geometry" />
        </mxCell>
        <mxCell id="C12_iZIxtaX92C0jbHGQ-65" value="" style="edgeStyle=orthogonalEdgeStyle;rounded=0;orthogonalLoop=1;jettySize=auto;html=1;" edge="1" parent="6HYaSR4sAWEqXXqdwUCk-1" source="4E1fSC2S83Ol9o_Z6Cej-4" target="C12_iZIxtaX92C0jbHGQ-51">
          <mxGeometry relative="1" as="geometry" />
        </mxCell>
        <mxCell id="C12_iZIxtaX92C0jbHGQ-67" value="" style="edgeStyle=orthogonalEdgeStyle;rounded=0;orthogonalLoop=1;jettySize=auto;html=1;" edge="1" parent="6HYaSR4sAWEqXXqdwUCk-1" source="4E1fSC2S83Ol9o_Z6Cej-4" target="C12_iZIxtaX92C0jbHGQ-51">
          <mxGeometry relative="1" as="geometry" />
        </mxCell>
        <mxCell id="4E1fSC2S83Ol9o_Z6Cej-4" value="DELIVERY&lt;br&gt;COMPANY" style="rounded=0;whiteSpace=wrap;html=1;fillColor=#e1d5e7;strokeColor=#9673a6;" vertex="1" parent="6HYaSR4sAWEqXXqdwUCk-1">
          <mxGeometry x="1890" y="40" width="120" height="60" as="geometry" />
        </mxCell>
        <mxCell id="a4Zec1WIRI8G0avqFuEx-0" value="Cake" style="swimlane;whiteSpace=wrap;html=1;rounded=1;shadow=0;comic=0;labelBackgroundColor=none;strokeWidth=1;fontFamily=Verdana;fontSize=12;align=center;" vertex="1" parent="6HYaSR4sAWEqXXqdwUCk-1">
          <mxGeometry x="85" y="560" width="2635" height="190" as="geometry" />
        </mxCell>
        <mxCell id="a4Zec1WIRI8G0avqFuEx-4" value="" style="ellipse;html=1;shape=startState;fillColor=#000000;strokeColor=#ff0000;rounded=1;shadow=0;comic=0;labelBackgroundColor=none;fontFamily=Verdana;fontSize=12;fontColor=#000000;align=center;direction=south;" vertex="1" parent="a4Zec1WIRI8G0avqFuEx-0">
          <mxGeometry x="15" y="80" width="30" height="30" as="geometry" />
        </mxCell>
        <mxCell id="a4Zec1WIRI8G0avqFuEx-16" value="" style="ellipse;html=1;shape=endState;fillColor=#000000;strokeColor=#ff0000;rounded=1;shadow=0;comic=0;labelBackgroundColor=none;fontFamily=Verdana;fontSize=12;fontColor=#000000;align=center;" vertex="1" parent="a4Zec1WIRI8G0avqFuEx-0">
          <mxGeometry x="2545" y="80" width="30" height="30" as="geometry" />
        </mxCell>
        <mxCell id="a4Zec1WIRI8G0avqFuEx-2" value="Cake Ordered" style="rounded=1;whiteSpace=wrap;html=1;arcSize=24;fillColor=#ffffc0;strokeColor=#ff0000;shadow=0;comic=0;labelBackgroundColor=none;fontFamily=Verdana;fontSize=12;fontColor=#000000;align=center;" vertex="1" parent="a4Zec1WIRI8G0avqFuEx-0">
          <mxGeometry x="95" y="65" width="120" height="60" as="geometry" />
        </mxCell>
        <mxCell id="a4Zec1WIRI8G0avqFuEx-3" style="edgeStyle=elbowEdgeStyle;html=1;labelBackgroundColor=none;endArrow=open;endSize=8;strokeColor=#ff0000;fontFamily=Verdana;fontSize=12;align=left;" edge="1" parent="a4Zec1WIRI8G0avqFuEx-0" source="a4Zec1WIRI8G0avqFuEx-4" target="a4Zec1WIRI8G0avqFuEx-2">
          <mxGeometry relative="1" as="geometry" />
        </mxCell>
        <mxCell id="a4Zec1WIRI8G0avqFuEx-6" value="Order Verified" style="rounded=1;whiteSpace=wrap;html=1;arcSize=24;fillColor=#ffffc0;strokeColor=#ff0000;shadow=0;comic=0;labelBackgroundColor=none;fontFamily=Verdana;fontSize=12;fontColor=#000000;align=center;" vertex="1" parent="a4Zec1WIRI8G0avqFuEx-0">
          <mxGeometry x="305" y="65" width="120" height="60" as="geometry" />
        </mxCell>
        <mxCell id="a4Zec1WIRI8G0avqFuEx-1" style="edgeStyle=elbowEdgeStyle;html=1;labelBackgroundColor=none;endArrow=open;endSize=8;strokeColor=#ff0000;fontFamily=Verdana;fontSize=12;align=left;" edge="1" parent="a4Zec1WIRI8G0avqFuEx-0" source="a4Zec1WIRI8G0avqFuEx-2" target="a4Zec1WIRI8G0avqFuEx-6">
          <mxGeometry relative="1" as="geometry" />
        </mxCell>
        <mxCell id="a4Zec1WIRI8G0avqFuEx-7" value="Cake Baked" style="rounded=1;whiteSpace=wrap;html=1;arcSize=24;fillColor=#ffffc0;strokeColor=#ff0000;shadow=0;comic=0;labelBackgroundColor=none;fontFamily=Verdana;fontSize=12;fontColor=#000000;align=center;" vertex="1" parent="a4Zec1WIRI8G0avqFuEx-0">
          <mxGeometry x="1325" y="65" width="120" height="60" as="geometry" />
        </mxCell>
        <mxCell id="a4Zec1WIRI8G0avqFuEx-5" style="edgeStyle=elbowEdgeStyle;html=1;labelBackgroundColor=none;endArrow=open;endSize=8;strokeColor=#ff0000;fontFamily=Verdana;fontSize=12;align=left;" edge="1" parent="a4Zec1WIRI8G0avqFuEx-0" source="a4Zec1WIRI8G0avqFuEx-6" target="a4Zec1WIRI8G0avqFuEx-7">
          <mxGeometry relative="1" as="geometry" />
        </mxCell>
        <mxCell id="a4Zec1WIRI8G0avqFuEx-8" value="Cake Boxed" style="whiteSpace=wrap;html=1;fontFamily=Verdana;fillColor=#ffffc0;strokeColor=#ff0000;fontColor=#000000;rounded=1;arcSize=24;shadow=0;comic=0;labelBackgroundColor=none;" vertex="1" parent="a4Zec1WIRI8G0avqFuEx-0">
          <mxGeometry x="1475" y="65" width="120" height="60" as="geometry" />
        </mxCell>
        <mxCell id="a4Zec1WIRI8G0avqFuEx-9" value="" style="edgeStyle=orthogonalEdgeStyle;rounded=0;orthogonalLoop=1;jettySize=auto;html=1;fillColor=#fa6800;strokeColor=#C73500;" edge="1" parent="a4Zec1WIRI8G0avqFuEx-0" source="a4Zec1WIRI8G0avqFuEx-7" target="a4Zec1WIRI8G0avqFuEx-8">
          <mxGeometry relative="1" as="geometry" />
        </mxCell>
        <mxCell id="a4Zec1WIRI8G0avqFuEx-10" value="&lt;div&gt;Cake Picked up&lt;/div&gt;" style="whiteSpace=wrap;html=1;fontFamily=Verdana;fillColor=#ffffc0;strokeColor=#ff0000;fontColor=#000000;rounded=1;arcSize=24;shadow=0;comic=0;labelBackgroundColor=none;" vertex="1" parent="a4Zec1WIRI8G0avqFuEx-0">
          <mxGeometry x="1800" y="65" width="120" height="60" as="geometry" />
        </mxCell>
        <mxCell id="a4Zec1WIRI8G0avqFuEx-11" value="" style="edgeStyle=orthogonalEdgeStyle;rounded=0;orthogonalLoop=1;jettySize=auto;html=1;" edge="1" parent="a4Zec1WIRI8G0avqFuEx-0" source="a4Zec1WIRI8G0avqFuEx-8" target="a4Zec1WIRI8G0avqFuEx-10">
          <mxGeometry relative="1" as="geometry" />
        </mxCell>
        <mxCell id="a4Zec1WIRI8G0avqFuEx-12" value="Cake Transported" style="whiteSpace=wrap;html=1;fontFamily=Verdana;fillColor=#ffffc0;strokeColor=#ff0000;fontColor=#000000;rounded=1;arcSize=24;shadow=0;comic=0;labelBackgroundColor=none;" vertex="1" parent="a4Zec1WIRI8G0avqFuEx-0">
          <mxGeometry x="1970" y="65" width="120" height="60" as="geometry" />
        </mxCell>
        <mxCell id="a4Zec1WIRI8G0avqFuEx-13" value="" style="edgeStyle=orthogonalEdgeStyle;rounded=0;orthogonalLoop=1;jettySize=auto;html=1;" edge="1" parent="a4Zec1WIRI8G0avqFuEx-0" source="a4Zec1WIRI8G0avqFuEx-10" target="a4Zec1WIRI8G0avqFuEx-12">
          <mxGeometry relative="1" as="geometry" />
        </mxCell>
        <mxCell id="a4Zec1WIRI8G0avqFuEx-14" value="Cake Delivered" style="whiteSpace=wrap;html=1;fontFamily=Verdana;fillColor=#ffffc0;strokeColor=#ff0000;fontColor=#000000;rounded=1;arcSize=24;shadow=0;comic=0;labelBackgroundColor=none;" vertex="1" parent="a4Zec1WIRI8G0avqFuEx-0">
          <mxGeometry x="2142.5" y="65" width="120" height="60" as="geometry" />
        </mxCell>
        <mxCell id="a4Zec1WIRI8G0avqFuEx-17" value="" style="edgeStyle=orthogonalEdgeStyle;rounded=0;orthogonalLoop=1;jettySize=auto;html=1;" edge="1" parent="a4Zec1WIRI8G0avqFuEx-0" source="a4Zec1WIRI8G0avqFuEx-14" target="a4Zec1WIRI8G0avqFuEx-16">
          <mxGeometry relative="1" as="geometry" />
        </mxCell>
        <mxCell id="a4Zec1WIRI8G0avqFuEx-15" value="" style="edgeStyle=orthogonalEdgeStyle;rounded=0;orthogonalLoop=1;jettySize=auto;html=1;" edge="1" parent="a4Zec1WIRI8G0avqFuEx-0" source="a4Zec1WIRI8G0avqFuEx-12" target="a4Zec1WIRI8G0avqFuEx-14">
          <mxGeometry relative="1" as="geometry" />
        </mxCell>
        <mxCell id="a4Zec1WIRI8G0avqFuEx-20" value="" style="edgeStyle=orthogonalEdgeStyle;rounded=0;orthogonalLoop=1;jettySize=auto;html=1;" edge="1" parent="6HYaSR4sAWEqXXqdwUCk-1" source="a4Zec1WIRI8G0avqFuEx-18" target="4E1fSC2S83Ol9o_Z6Cej-0">
          <mxGeometry relative="1" as="geometry" />
        </mxCell>
        <mxCell id="a4Zec1WIRI8G0avqFuEx-18" value="" style="ellipse;html=1;shape=startState;fillColor=#000000;strokeColor=#ff0000;" vertex="1" parent="6HYaSR4sAWEqXXqdwUCk-1">
          <mxGeometry x="20" y="55" width="30" height="30" as="geometry" />
        </mxCell>
        <mxCell id="C12_iZIxtaX92C0jbHGQ-7" value="" style="edgeStyle=orthogonalEdgeStyle;rounded=0;orthogonalLoop=1;jettySize=auto;html=1;" edge="1" parent="6HYaSR4sAWEqXXqdwUCk-1" source="C12_iZIxtaX92C0jbHGQ-0" target="C12_iZIxtaX92C0jbHGQ-6">
          <mxGeometry relative="1" as="geometry" />
        </mxCell>
        <mxCell id="C12_iZIxtaX92C0jbHGQ-0" value="IsCustomer" style="html=1;" vertex="1" parent="6HYaSR4sAWEqXXqdwUCk-1">
          <mxGeometry x="85" y="140" width="110" height="50" as="geometry" />
        </mxCell>
        <mxCell id="C12_iZIxtaX92C0jbHGQ-99" value="" style="edgeStyle=orthogonalEdgeStyle;rounded=0;orthogonalLoop=1;jettySize=auto;html=1;" edge="1" parent="6HYaSR4sAWEqXXqdwUCk-1" source="C12_iZIxtaX92C0jbHGQ-6" target="a4Zec1WIRI8G0avqFuEx-2">
          <mxGeometry relative="1" as="geometry" />
        </mxCell>
        <mxCell id="C12_iZIxtaX92C0jbHGQ-6" value="orderCake" style="shape=note2;boundedLbl=1;whiteSpace=wrap;html=1;size=25;verticalAlign=top;align=center;" vertex="1" parent="6HYaSR4sAWEqXXqdwUCk-1">
          <mxGeometry x="82.5" y="230" width="115" height="60" as="geometry" />
        </mxCell>
        <mxCell id="C12_iZIxtaX92C0jbHGQ-11" value="" style="edgeStyle=orthogonalEdgeStyle;rounded=0;orthogonalLoop=1;jettySize=auto;html=1;" edge="1" parent="6HYaSR4sAWEqXXqdwUCk-1" source="C12_iZIxtaX92C0jbHGQ-8" target="C12_iZIxtaX92C0jbHGQ-10">
          <mxGeometry relative="1" as="geometry" />
        </mxCell>
        <mxCell id="C12_iZIxtaX92C0jbHGQ-8" value="&lt;div&gt;IsOperator,&lt;/div&gt;&lt;div&gt;orderReceived&lt;br&gt;&lt;/div&gt;" style="html=1;" vertex="1" parent="6HYaSR4sAWEqXXqdwUCk-1">
          <mxGeometry x="495" y="130" width="110" height="50" as="geometry" />
        </mxCell>
        <mxCell id="C12_iZIxtaX92C0jbHGQ-100" value="" style="edgeStyle=orthogonalEdgeStyle;rounded=0;orthogonalLoop=1;jettySize=auto;html=1;" edge="1" parent="6HYaSR4sAWEqXXqdwUCk-1" source="C12_iZIxtaX92C0jbHGQ-10" target="a4Zec1WIRI8G0avqFuEx-6">
          <mxGeometry relative="1" as="geometry" />
        </mxCell>
        <mxCell id="C12_iZIxtaX92C0jbHGQ-10" value="getOrderVerification" style="shape=note2;boundedLbl=1;whiteSpace=wrap;html=1;size=25;verticalAlign=top;align=center;" vertex="1" parent="6HYaSR4sAWEqXXqdwUCk-1">
          <mxGeometry x="492.5" y="210" width="115" height="60" as="geometry" />
        </mxCell>
        <mxCell id="C12_iZIxtaX92C0jbHGQ-21" value="" style="edgeStyle=orthogonalEdgeStyle;rounded=0;orthogonalLoop=1;jettySize=auto;html=1;" edge="1" parent="6HYaSR4sAWEqXXqdwUCk-1" source="C12_iZIxtaX92C0jbHGQ-12" target="C12_iZIxtaX92C0jbHGQ-15">
          <mxGeometry relative="1" as="geometry" />
        </mxCell>
        <mxCell id="C12_iZIxtaX92C0jbHGQ-12" value="CAKE COMPANY&lt;br&gt;OPERATIONS" style="rounded=0;whiteSpace=wrap;html=1;fillColor=#e1d5e7;strokeColor=#9673a6;" vertex="1" parent="6HYaSR4sAWEqXXqdwUCk-1">
          <mxGeometry x="760" y="40" width="120" height="60" as="geometry" />
        </mxCell>
        <mxCell id="C12_iZIxtaX92C0jbHGQ-23" value="" style="edgeStyle=orthogonalEdgeStyle;rounded=0;orthogonalLoop=1;jettySize=auto;html=1;" edge="1" parent="6HYaSR4sAWEqXXqdwUCk-1" source="C12_iZIxtaX92C0jbHGQ-15" target="C12_iZIxtaX92C0jbHGQ-22">
          <mxGeometry relative="1" as="geometry" />
        </mxCell>
        <mxCell id="C12_iZIxtaX92C0jbHGQ-15" value="&lt;div&gt;IsOperator,&lt;/div&gt;&lt;div&gt;orderVerified&lt;br&gt;&lt;/div&gt;" style="html=1;" vertex="1" parent="6HYaSR4sAWEqXXqdwUCk-1">
          <mxGeometry x="765" y="130" width="110" height="50" as="geometry" />
        </mxCell>
        <mxCell id="C12_iZIxtaX92C0jbHGQ-22" value="sendOrderToBaker" style="shape=note2;boundedLbl=1;whiteSpace=wrap;html=1;size=25;verticalAlign=top;align=center;" vertex="1" parent="6HYaSR4sAWEqXXqdwUCk-1">
          <mxGeometry x="762.5" y="210" width="115" height="60" as="geometry" />
        </mxCell>
        <mxCell id="C12_iZIxtaX92C0jbHGQ-27" value="" style="edgeStyle=orthogonalEdgeStyle;rounded=0;orthogonalLoop=1;jettySize=auto;html=1;" edge="1" parent="6HYaSR4sAWEqXXqdwUCk-1" source="C12_iZIxtaX92C0jbHGQ-24" target="C12_iZIxtaX92C0jbHGQ-26">
          <mxGeometry relative="1" as="geometry" />
        </mxCell>
        <mxCell id="C12_iZIxtaX92C0jbHGQ-24" value="&lt;div&gt;IsBaker,&lt;/div&gt;&lt;div&gt;orderReceived&lt;br&gt;&lt;/div&gt;" style="html=1;" vertex="1" parent="6HYaSR4sAWEqXXqdwUCk-1">
          <mxGeometry x="1085" y="130" width="110" height="50" as="geometry" />
        </mxCell>
        <mxCell id="C12_iZIxtaX92C0jbHGQ-26" value="checkIngredients" style="shape=note2;boundedLbl=1;whiteSpace=wrap;html=1;size=25;verticalAlign=top;align=center;" vertex="1" parent="6HYaSR4sAWEqXXqdwUCk-1">
          <mxGeometry x="1082.5" y="210" width="115" height="60" as="geometry" />
        </mxCell>
        <mxCell id="C12_iZIxtaX92C0jbHGQ-30" value="" style="edgeStyle=orthogonalEdgeStyle;rounded=0;orthogonalLoop=1;jettySize=auto;html=1;" edge="1" parent="6HYaSR4sAWEqXXqdwUCk-1" source="C12_iZIxtaX92C0jbHGQ-28" target="C12_iZIxtaX92C0jbHGQ-29">
          <mxGeometry relative="1" as="geometry" />
        </mxCell>
        <mxCell id="C12_iZIxtaX92C0jbHGQ-28" value="BAKERS" style="rounded=0;whiteSpace=wrap;html=1;fillColor=#e1d5e7;strokeColor=#9673a6;" vertex="1" parent="6HYaSR4sAWEqXXqdwUCk-1">
          <mxGeometry x="1250" y="40" width="120" height="60" as="geometry" />
        </mxCell>
        <mxCell id="C12_iZIxtaX92C0jbHGQ-32" value="" style="edgeStyle=orthogonalEdgeStyle;rounded=0;orthogonalLoop=1;jettySize=auto;html=1;" edge="1" parent="6HYaSR4sAWEqXXqdwUCk-1" source="C12_iZIxtaX92C0jbHGQ-29" target="C12_iZIxtaX92C0jbHGQ-31">
          <mxGeometry relative="1" as="geometry" />
        </mxCell>
        <mxCell id="C12_iZIxtaX92C0jbHGQ-29" value="&lt;div&gt;IsBaker,&lt;/div&gt;&lt;div&gt;orderReceived,&lt;br&gt;&lt;/div&gt;&lt;div&gt;insufficientIngred&lt;br&gt;&lt;/div&gt;" style="html=1;" vertex="1" parent="6HYaSR4sAWEqXXqdwUCk-1">
          <mxGeometry x="1255" y="130" width="110" height="50" as="geometry" />
        </mxCell>
        <mxCell id="C12_iZIxtaX92C0jbHGQ-56" value="" style="edgeStyle=orthogonalEdgeStyle;rounded=0;orthogonalLoop=1;jettySize=auto;html=1;" edge="1" parent="6HYaSR4sAWEqXXqdwUCk-1" source="C12_iZIxtaX92C0jbHGQ-31" target="C12_iZIxtaX92C0jbHGQ-55">
          <mxGeometry relative="1" as="geometry" />
        </mxCell>
        <mxCell id="C12_iZIxtaX92C0jbHGQ-31" value="notifyOperations" style="shape=note2;boundedLbl=1;whiteSpace=wrap;html=1;size=25;verticalAlign=top;align=center;" vertex="1" parent="6HYaSR4sAWEqXXqdwUCk-1">
          <mxGeometry x="1252.5" y="210" width="115" height="60" as="geometry" />
        </mxCell>
        <mxCell id="C12_iZIxtaX92C0jbHGQ-35" value="" style="edgeStyle=orthogonalEdgeStyle;rounded=0;orthogonalLoop=1;jettySize=auto;html=1;" edge="1" parent="6HYaSR4sAWEqXXqdwUCk-1" source="C12_iZIxtaX92C0jbHGQ-33" target="C12_iZIxtaX92C0jbHGQ-34">
          <mxGeometry relative="1" as="geometry" />
        </mxCell>
        <mxCell id="C12_iZIxtaX92C0jbHGQ-33" value="CAKE COMPANY&lt;br&gt;OPERATIONS" style="rounded=0;whiteSpace=wrap;html=1;fillColor=#e1d5e7;strokeColor=#9673a6;" vertex="1" parent="6HYaSR4sAWEqXXqdwUCk-1">
          <mxGeometry x="930" y="40" width="120" height="60" as="geometry" />
        </mxCell>
        <mxCell id="C12_iZIxtaX92C0jbHGQ-37" value="" style="edgeStyle=orthogonalEdgeStyle;rounded=0;orthogonalLoop=1;jettySize=auto;html=1;" edge="1" parent="6HYaSR4sAWEqXXqdwUCk-1" source="C12_iZIxtaX92C0jbHGQ-34" target="C12_iZIxtaX92C0jbHGQ-36">
          <mxGeometry relative="1" as="geometry" />
        </mxCell>
        <mxCell id="C12_iZIxtaX92C0jbHGQ-34" value="&lt;div&gt;IsOperator,&lt;/div&gt;&lt;div&gt;orderVerified,&lt;br&gt;&lt;/div&gt;&lt;div&gt;insufficientIngred&lt;br&gt;&lt;/div&gt;" style="html=1;" vertex="1" parent="6HYaSR4sAWEqXXqdwUCk-1">
          <mxGeometry x="935" y="130" width="110" height="50" as="geometry" />
        </mxCell>
        <mxCell id="C12_iZIxtaX92C0jbHGQ-36" value="notifyCustomer" style="shape=note2;boundedLbl=1;whiteSpace=wrap;html=1;size=25;verticalAlign=top;align=center;" vertex="1" parent="6HYaSR4sAWEqXXqdwUCk-1">
          <mxGeometry x="932.5" y="210" width="115" height="60" as="geometry" />
        </mxCell>
        <mxCell id="C12_iZIxtaX92C0jbHGQ-41" value="" style="edgeStyle=orthogonalEdgeStyle;rounded=0;orthogonalLoop=1;jettySize=auto;html=1;" edge="1" parent="6HYaSR4sAWEqXXqdwUCk-1" source="C12_iZIxtaX92C0jbHGQ-38" target="C12_iZIxtaX92C0jbHGQ-40">
          <mxGeometry relative="1" as="geometry" />
        </mxCell>
        <mxCell id="C12_iZIxtaX92C0jbHGQ-38" value="&lt;div&gt;IsBaker,&lt;/div&gt;&lt;div&gt;orderReceived,&lt;br&gt;&lt;/div&gt;&lt;div&gt;sufficientIngred&lt;br&gt;&lt;/div&gt;" style="html=1;" vertex="1" parent="6HYaSR4sAWEqXXqdwUCk-1">
          <mxGeometry x="1415" y="130" width="110" height="50" as="geometry" />
        </mxCell>
        <mxCell id="C12_iZIxtaX92C0jbHGQ-101" value="" style="edgeStyle=orthogonalEdgeStyle;rounded=0;orthogonalLoop=1;jettySize=auto;html=1;" edge="1" parent="6HYaSR4sAWEqXXqdwUCk-1" source="C12_iZIxtaX92C0jbHGQ-40" target="a4Zec1WIRI8G0avqFuEx-7">
          <mxGeometry relative="1" as="geometry" />
        </mxCell>
        <mxCell id="C12_iZIxtaX92C0jbHGQ-40" value="bakeCake" style="shape=note2;boundedLbl=1;whiteSpace=wrap;html=1;size=25;verticalAlign=top;align=center;" vertex="1" parent="6HYaSR4sAWEqXXqdwUCk-1">
          <mxGeometry x="1412.5" y="210" width="115" height="60" as="geometry" />
        </mxCell>
        <mxCell id="C12_iZIxtaX92C0jbHGQ-63" value="" style="edgeStyle=orthogonalEdgeStyle;rounded=0;orthogonalLoop=1;jettySize=auto;html=1;" edge="1" parent="6HYaSR4sAWEqXXqdwUCk-1" source="C12_iZIxtaX92C0jbHGQ-42" target="C12_iZIxtaX92C0jbHGQ-43">
          <mxGeometry relative="1" as="geometry" />
        </mxCell>
        <mxCell id="C12_iZIxtaX92C0jbHGQ-42" value="BAKERS" style="rounded=0;whiteSpace=wrap;html=1;fillColor=#e1d5e7;strokeColor=#9673a6;" vertex="1" parent="6HYaSR4sAWEqXXqdwUCk-1">
          <mxGeometry x="1560" y="40" width="120" height="60" as="geometry" />
        </mxCell>
        <mxCell id="C12_iZIxtaX92C0jbHGQ-47" value="" style="edgeStyle=orthogonalEdgeStyle;rounded=0;orthogonalLoop=1;jettySize=auto;html=1;" edge="1" parent="6HYaSR4sAWEqXXqdwUCk-1" source="C12_iZIxtaX92C0jbHGQ-43" target="C12_iZIxtaX92C0jbHGQ-44">
          <mxGeometry relative="1" as="geometry" />
        </mxCell>
        <mxCell id="C12_iZIxtaX92C0jbHGQ-43" value="&lt;div&gt;IsBaker,&lt;/div&gt;&lt;div&gt;orderReceived,&lt;br&gt;&lt;/div&gt;&lt;div&gt;sufficientIngred,&lt;/div&gt;&lt;div&gt;cakeBaked&lt;br&gt;&lt;/div&gt;" style="html=1;" vertex="1" parent="6HYaSR4sAWEqXXqdwUCk-1">
          <mxGeometry x="1565" y="120" width="110" height="70" as="geometry" />
        </mxCell>
        <mxCell id="C12_iZIxtaX92C0jbHGQ-102" value="" style="edgeStyle=orthogonalEdgeStyle;rounded=0;orthogonalLoop=1;jettySize=auto;html=1;" edge="1" parent="6HYaSR4sAWEqXXqdwUCk-1" source="C12_iZIxtaX92C0jbHGQ-44" target="a4Zec1WIRI8G0avqFuEx-8">
          <mxGeometry relative="1" as="geometry" />
        </mxCell>
        <mxCell id="C12_iZIxtaX92C0jbHGQ-44" value="boxCake" style="shape=note2;boundedLbl=1;whiteSpace=wrap;html=1;size=25;verticalAlign=top;align=center;" vertex="1" parent="6HYaSR4sAWEqXXqdwUCk-1">
          <mxGeometry x="1562.5" y="220" width="115" height="60" as="geometry" />
        </mxCell>
        <mxCell id="C12_iZIxtaX92C0jbHGQ-64" value="" style="edgeStyle=orthogonalEdgeStyle;rounded=0;orthogonalLoop=1;jettySize=auto;html=1;" edge="1" parent="6HYaSR4sAWEqXXqdwUCk-1" source="C12_iZIxtaX92C0jbHGQ-45" target="C12_iZIxtaX92C0jbHGQ-46">
          <mxGeometry relative="1" as="geometry" />
        </mxCell>
        <mxCell id="C12_iZIxtaX92C0jbHGQ-45" value="BAKERS" style="rounded=0;whiteSpace=wrap;html=1;fillColor=#e1d5e7;strokeColor=#9673a6;" vertex="1" parent="6HYaSR4sAWEqXXqdwUCk-1">
          <mxGeometry x="1720" y="40" width="120" height="60" as="geometry" />
        </mxCell>
        <mxCell id="C12_iZIxtaX92C0jbHGQ-49" value="" style="edgeStyle=orthogonalEdgeStyle;rounded=0;orthogonalLoop=1;jettySize=auto;html=1;" edge="1" parent="6HYaSR4sAWEqXXqdwUCk-1" source="C12_iZIxtaX92C0jbHGQ-46" target="C12_iZIxtaX92C0jbHGQ-48">
          <mxGeometry relative="1" as="geometry" />
        </mxCell>
        <mxCell id="C12_iZIxtaX92C0jbHGQ-46" value="&lt;div&gt;IsBaker,&lt;/div&gt;&lt;div&gt;orderReceived,&lt;br&gt;&lt;/div&gt;&lt;div&gt;sufficientIngred,&lt;/div&gt;&lt;div&gt;cakeBaked,&lt;/div&gt;&lt;div&gt;cakeBoxed&lt;br&gt;&lt;/div&gt;" style="html=1;" vertex="1" parent="6HYaSR4sAWEqXXqdwUCk-1">
          <mxGeometry x="1720" y="120" width="110" height="70" as="geometry" />
        </mxCell>
        <mxCell id="C12_iZIxtaX92C0jbHGQ-48" value="notifyDeliverer" style="shape=note2;boundedLbl=1;whiteSpace=wrap;html=1;size=25;verticalAlign=top;align=center;" vertex="1" parent="6HYaSR4sAWEqXXqdwUCk-1">
          <mxGeometry x="1717.5" y="220" width="115" height="60" as="geometry" />
        </mxCell>
        <mxCell id="C12_iZIxtaX92C0jbHGQ-52" value="" style="edgeStyle=orthogonalEdgeStyle;rounded=0;orthogonalLoop=1;jettySize=auto;html=1;" edge="1" parent="6HYaSR4sAWEqXXqdwUCk-1" source="C12_iZIxtaX92C0jbHGQ-50" target="C12_iZIxtaX92C0jbHGQ-51">
          <mxGeometry relative="1" as="geometry" />
        </mxCell>
        <mxCell id="C12_iZIxtaX92C0jbHGQ-50" value="&lt;div&gt;IsDeliverer,&lt;/div&gt;&lt;div&gt;cakeReady&lt;br&gt;&lt;/div&gt;" style="html=1;" vertex="1" parent="6HYaSR4sAWEqXXqdwUCk-1">
          <mxGeometry x="1890" y="120" width="110" height="50" as="geometry" />
        </mxCell>
        <mxCell id="C12_iZIxtaX92C0jbHGQ-103" value="" style="edgeStyle=orthogonalEdgeStyle;rounded=0;orthogonalLoop=1;jettySize=auto;html=1;" edge="1" parent="6HYaSR4sAWEqXXqdwUCk-1" source="C12_iZIxtaX92C0jbHGQ-51" target="a4Zec1WIRI8G0avqFuEx-10">
          <mxGeometry relative="1" as="geometry" />
        </mxCell>
        <mxCell id="C12_iZIxtaX92C0jbHGQ-51" value="pickUpCake" style="shape=note2;boundedLbl=1;whiteSpace=wrap;html=1;size=25;verticalAlign=top;align=center;" vertex="1" parent="6HYaSR4sAWEqXXqdwUCk-1">
          <mxGeometry x="1887.5" y="210" width="115" height="60" as="geometry" />
        </mxCell>
        <mxCell id="C12_iZIxtaX92C0jbHGQ-58" value="" style="edgeStyle=orthogonalEdgeStyle;rounded=0;orthogonalLoop=1;jettySize=auto;html=1;" edge="1" parent="6HYaSR4sAWEqXXqdwUCk-1" source="C12_iZIxtaX92C0jbHGQ-55" target="C12_iZIxtaX92C0jbHGQ-57">
          <mxGeometry relative="1" as="geometry" />
        </mxCell>
        <mxCell id="C12_iZIxtaX92C0jbHGQ-55" value="updateIngredientList" style="shape=note2;boundedLbl=1;whiteSpace=wrap;html=1;size=25;verticalAlign=top;align=center;" vertex="1" parent="6HYaSR4sAWEqXXqdwUCk-1">
          <mxGeometry x="1252.5" y="300" width="115" height="60" as="geometry" />
        </mxCell>
        <mxCell id="C12_iZIxtaX92C0jbHGQ-57" value="orderIngredients" style="shape=note2;boundedLbl=1;whiteSpace=wrap;html=1;size=25;verticalAlign=top;align=center;" vertex="1" parent="6HYaSR4sAWEqXXqdwUCk-1">
          <mxGeometry x="1252.5" y="390" width="115" height="60" as="geometry" />
        </mxCell>
        <mxCell id="C12_iZIxtaX92C0jbHGQ-66" value="" style="edgeStyle=orthogonalEdgeStyle;rounded=0;orthogonalLoop=1;jettySize=auto;html=1;" edge="1" parent="6HYaSR4sAWEqXXqdwUCk-1" source="C12_iZIxtaX92C0jbHGQ-59" target="C12_iZIxtaX92C0jbHGQ-61">
          <mxGeometry relative="1" as="geometry" />
        </mxCell>
        <mxCell id="C12_iZIxtaX92C0jbHGQ-59" value="DELIVERY&lt;br&gt;COMPANY" style="rounded=0;whiteSpace=wrap;html=1;fillColor=#e1d5e7;strokeColor=#9673a6;" vertex="1" parent="6HYaSR4sAWEqXXqdwUCk-1">
          <mxGeometry x="2060" y="40" width="120" height="60" as="geometry" />
        </mxCell>
        <mxCell id="C12_iZIxtaX92C0jbHGQ-62" value="" style="edgeStyle=orthogonalEdgeStyle;rounded=0;orthogonalLoop=1;jettySize=auto;html=1;" edge="1" parent="6HYaSR4sAWEqXXqdwUCk-1" source="C12_iZIxtaX92C0jbHGQ-60" target="C12_iZIxtaX92C0jbHGQ-61">
          <mxGeometry relative="1" as="geometry" />
        </mxCell>
        <mxCell id="C12_iZIxtaX92C0jbHGQ-60" value="&lt;div&gt;IsDeliverer,&lt;/div&gt;&lt;div&gt;cakePickedUp&lt;/div&gt;" style="html=1;" vertex="1" parent="6HYaSR4sAWEqXXqdwUCk-1">
          <mxGeometry x="2060" y="120" width="110" height="50" as="geometry" />
        </mxCell>
        <mxCell id="C12_iZIxtaX92C0jbHGQ-69" value="" style="edgeStyle=orthogonalEdgeStyle;rounded=0;orthogonalLoop=1;jettySize=auto;html=1;" edge="1" parent="6HYaSR4sAWEqXXqdwUCk-1" source="C12_iZIxtaX92C0jbHGQ-61" target="C12_iZIxtaX92C0jbHGQ-68">
          <mxGeometry relative="1" as="geometry" />
        </mxCell>
        <mxCell id="C12_iZIxtaX92C0jbHGQ-61" value="notifyOperations" style="shape=note2;boundedLbl=1;whiteSpace=wrap;html=1;size=25;verticalAlign=top;align=center;" vertex="1" parent="6HYaSR4sAWEqXXqdwUCk-1">
          <mxGeometry x="2057.5" y="210" width="115" height="60" as="geometry" />
        </mxCell>
        <mxCell id="C12_iZIxtaX92C0jbHGQ-104" value="" style="edgeStyle=orthogonalEdgeStyle;rounded=0;orthogonalLoop=1;jettySize=auto;html=1;" edge="1" parent="6HYaSR4sAWEqXXqdwUCk-1" source="C12_iZIxtaX92C0jbHGQ-68" target="a4Zec1WIRI8G0avqFuEx-12">
          <mxGeometry relative="1" as="geometry" />
        </mxCell>
        <mxCell id="C12_iZIxtaX92C0jbHGQ-68" value="transportCake" style="shape=note2;boundedLbl=1;whiteSpace=wrap;html=1;size=25;verticalAlign=top;align=center;" vertex="1" parent="6HYaSR4sAWEqXXqdwUCk-1">
          <mxGeometry x="2057.5" y="310" width="115" height="60" as="geometry" />
        </mxCell>
        <mxCell id="C12_iZIxtaX92C0jbHGQ-72" value="" style="edgeStyle=orthogonalEdgeStyle;rounded=0;orthogonalLoop=1;jettySize=auto;html=1;" edge="1" parent="6HYaSR4sAWEqXXqdwUCk-1" source="C12_iZIxtaX92C0jbHGQ-70" target="C12_iZIxtaX92C0jbHGQ-71">
          <mxGeometry relative="1" as="geometry" />
        </mxCell>
        <mxCell id="C12_iZIxtaX92C0jbHGQ-70" value="DELIVERY&lt;br&gt;COMPANY" style="rounded=0;whiteSpace=wrap;html=1;fillColor=#e1d5e7;strokeColor=#9673a6;" vertex="1" parent="6HYaSR4sAWEqXXqdwUCk-1">
          <mxGeometry x="2230" y="40" width="120" height="60" as="geometry" />
        </mxCell>
        <mxCell id="C12_iZIxtaX92C0jbHGQ-74" value="" style="edgeStyle=orthogonalEdgeStyle;rounded=0;orthogonalLoop=1;jettySize=auto;html=1;" edge="1" parent="6HYaSR4sAWEqXXqdwUCk-1" source="C12_iZIxtaX92C0jbHGQ-71" target="C12_iZIxtaX92C0jbHGQ-73">
          <mxGeometry relative="1" as="geometry" />
        </mxCell>
        <mxCell id="C12_iZIxtaX92C0jbHGQ-71" value="&lt;div&gt;IsDeliverer,&lt;/div&gt;&lt;div&gt;cakeTransporting&lt;br&gt;&lt;/div&gt;" style="html=1;" vertex="1" parent="6HYaSR4sAWEqXXqdwUCk-1">
          <mxGeometry x="2235" y="120" width="110" height="50" as="geometry" />
        </mxCell>
        <mxCell id="C12_iZIxtaX92C0jbHGQ-81" value="" style="edgeStyle=orthogonalEdgeStyle;rounded=0;orthogonalLoop=1;jettySize=auto;html=1;" edge="1" parent="6HYaSR4sAWEqXXqdwUCk-1" source="C12_iZIxtaX92C0jbHGQ-73" target="C12_iZIxtaX92C0jbHGQ-80">
          <mxGeometry relative="1" as="geometry" />
        </mxCell>
        <mxCell id="C12_iZIxtaX92C0jbHGQ-73" value="deliverCake" style="shape=note2;boundedLbl=1;whiteSpace=wrap;html=1;size=25;verticalAlign=top;align=center;" vertex="1" parent="6HYaSR4sAWEqXXqdwUCk-1">
          <mxGeometry x="2232.5" y="210" width="115" height="60" as="geometry" />
        </mxCell>
        <mxCell id="C12_iZIxtaX92C0jbHGQ-77" value="" style="edgeStyle=orthogonalEdgeStyle;rounded=0;orthogonalLoop=1;jettySize=auto;html=1;" edge="1" parent="6HYaSR4sAWEqXXqdwUCk-1" source="C12_iZIxtaX92C0jbHGQ-75" target="C12_iZIxtaX92C0jbHGQ-76">
          <mxGeometry relative="1" as="geometry" />
        </mxCell>
        <mxCell id="C12_iZIxtaX92C0jbHGQ-75" value="DELIVERY&lt;br&gt;COMPANY" style="rounded=0;whiteSpace=wrap;html=1;fillColor=#e1d5e7;strokeColor=#9673a6;" vertex="1" parent="6HYaSR4sAWEqXXqdwUCk-1">
          <mxGeometry x="2390" y="40" width="120" height="60" as="geometry" />
        </mxCell>
        <mxCell id="C12_iZIxtaX92C0jbHGQ-79" value="" style="edgeStyle=orthogonalEdgeStyle;rounded=0;orthogonalLoop=1;jettySize=auto;html=1;" edge="1" parent="6HYaSR4sAWEqXXqdwUCk-1" source="C12_iZIxtaX92C0jbHGQ-76" target="C12_iZIxtaX92C0jbHGQ-78">
          <mxGeometry relative="1" as="geometry" />
        </mxCell>
        <mxCell id="C12_iZIxtaX92C0jbHGQ-76" value="&lt;div&gt;IsDeliverer,&lt;/div&gt;&lt;div&gt;deliveryVerified&lt;br&gt;&lt;/div&gt;" style="html=1;" vertex="1" parent="6HYaSR4sAWEqXXqdwUCk-1">
          <mxGeometry x="2395" y="120" width="110" height="50" as="geometry" />
        </mxCell>
        <mxCell id="C12_iZIxtaX92C0jbHGQ-78" value="notifyOperations" style="shape=note2;boundedLbl=1;whiteSpace=wrap;html=1;size=25;verticalAlign=top;align=center;" vertex="1" parent="6HYaSR4sAWEqXXqdwUCk-1">
          <mxGeometry x="2392.5" y="210" width="115" height="60" as="geometry" />
        </mxCell>
        <mxCell id="C12_iZIxtaX92C0jbHGQ-105" value="" style="edgeStyle=orthogonalEdgeStyle;rounded=0;orthogonalLoop=1;jettySize=auto;html=1;" edge="1" parent="6HYaSR4sAWEqXXqdwUCk-1" source="C12_iZIxtaX92C0jbHGQ-80" target="a4Zec1WIRI8G0avqFuEx-14">
          <mxGeometry relative="1" as="geometry" />
        </mxCell>
        <mxCell id="C12_iZIxtaX92C0jbHGQ-80" value="deliveryVerified" style="shape=note2;boundedLbl=1;whiteSpace=wrap;html=1;size=25;verticalAlign=top;align=center;" vertex="1" parent="6HYaSR4sAWEqXXqdwUCk-1">
          <mxGeometry x="2230" y="310" width="115" height="60" as="geometry" />
        </mxCell>
        <mxCell id="C12_iZIxtaX92C0jbHGQ-87" value="" style="edgeStyle=orthogonalEdgeStyle;rounded=0;orthogonalLoop=1;jettySize=auto;html=1;" edge="1" parent="6HYaSR4sAWEqXXqdwUCk-1" source="C12_iZIxtaX92C0jbHGQ-85" target="C12_iZIxtaX92C0jbHGQ-86">
          <mxGeometry relative="1" as="geometry" />
        </mxCell>
        <mxCell id="C12_iZIxtaX92C0jbHGQ-85" value="CUSTOMER" style="rounded=0;whiteSpace=wrap;html=1;fillColor=#e1d5e7;strokeColor=#9673a6;" vertex="1" parent="6HYaSR4sAWEqXXqdwUCk-1">
          <mxGeometry x="220" y="40" width="120" height="60" as="geometry" />
        </mxCell>
        <mxCell id="C12_iZIxtaX92C0jbHGQ-89" value="" style="edgeStyle=orthogonalEdgeStyle;rounded=0;orthogonalLoop=1;jettySize=auto;html=1;" edge="1" parent="6HYaSR4sAWEqXXqdwUCk-1" source="C12_iZIxtaX92C0jbHGQ-86" target="C12_iZIxtaX92C0jbHGQ-88">
          <mxGeometry relative="1" as="geometry" />
        </mxCell>
        <mxCell id="C12_iZIxtaX92C0jbHGQ-86" value="&lt;div&gt;IsCustomer,&lt;/div&gt;&lt;div&gt;orderMade&lt;br&gt;&lt;/div&gt;" style="html=1;" vertex="1" parent="6HYaSR4sAWEqXXqdwUCk-1">
          <mxGeometry x="225" y="130" width="110" height="50" as="geometry" />
        </mxCell>
        <mxCell id="C12_iZIxtaX92C0jbHGQ-88" value="verifyOrder" style="shape=note2;boundedLbl=1;whiteSpace=wrap;html=1;size=25;verticalAlign=top;align=center;" vertex="1" parent="6HYaSR4sAWEqXXqdwUCk-1">
          <mxGeometry x="222.5" y="220" width="115" height="60" as="geometry" />
        </mxCell>
        <mxCell id="C12_iZIxtaX92C0jbHGQ-92" value="" style="edgeStyle=orthogonalEdgeStyle;rounded=0;orthogonalLoop=1;jettySize=auto;html=1;" edge="1" parent="6HYaSR4sAWEqXXqdwUCk-1" source="C12_iZIxtaX92C0jbHGQ-90" target="C12_iZIxtaX92C0jbHGQ-91">
          <mxGeometry relative="1" as="geometry" />
        </mxCell>
        <mxCell id="C12_iZIxtaX92C0jbHGQ-90" value="CAKE COMPANY&lt;br&gt;OPERATIONS" style="rounded=0;whiteSpace=wrap;html=1;fillColor=#e1d5e7;strokeColor=#9673a6;" vertex="1" parent="6HYaSR4sAWEqXXqdwUCk-1">
          <mxGeometry x="620" y="40" width="120" height="60" as="geometry" />
        </mxCell>
        <mxCell id="C12_iZIxtaX92C0jbHGQ-94" value="" style="edgeStyle=orthogonalEdgeStyle;rounded=0;orthogonalLoop=1;jettySize=auto;html=1;" edge="1" parent="6HYaSR4sAWEqXXqdwUCk-1" source="C12_iZIxtaX92C0jbHGQ-91" target="C12_iZIxtaX92C0jbHGQ-93">
          <mxGeometry relative="1" as="geometry" />
        </mxCell>
        <mxCell id="C12_iZIxtaX92C0jbHGQ-91" value="&lt;div&gt;IsOperator,&lt;/div&gt;&lt;div&gt;verificationRejected&lt;/div&gt;" style="html=1;" vertex="1" parent="6HYaSR4sAWEqXXqdwUCk-1">
          <mxGeometry x="625" y="130" width="110" height="50" as="geometry" />
        </mxCell>
        <mxCell id="C12_iZIxtaX92C0jbHGQ-93" value="cancelOrder" style="shape=note2;boundedLbl=1;whiteSpace=wrap;html=1;size=25;verticalAlign=top;align=center;" vertex="1" parent="6HYaSR4sAWEqXXqdwUCk-1">
          <mxGeometry x="622.5" y="210" width="115" height="60" as="geometry" />
        </mxCell>
        <mxCell id="C12_iZIxtaX92C0jbHGQ-95" value="CAKE COMPANY&lt;br&gt;OPERATIONS" style="rounded=0;whiteSpace=wrap;html=1;fillColor=#e1d5e7;strokeColor=#9673a6;" vertex="1" parent="6HYaSR4sAWEqXXqdwUCk-1">
          <mxGeometry x="357.5" y="40" width="120" height="60" as="geometry" />
        </mxCell>
        <mxCell id="C12_iZIxtaX92C0jbHGQ-98" value="" style="edgeStyle=orthogonalEdgeStyle;rounded=0;orthogonalLoop=1;jettySize=auto;html=1;" edge="1" parent="6HYaSR4sAWEqXXqdwUCk-1" source="C12_iZIxtaX92C0jbHGQ-96" target="C12_iZIxtaX92C0jbHGQ-97">
          <mxGeometry relative="1" as="geometry" />
        </mxCell>
        <mxCell id="C12_iZIxtaX92C0jbHGQ-96" value="&lt;div&gt;IsOperator,&lt;/div&gt;&lt;div&gt;orderDelivered&lt;/div&gt;" style="html=1;" vertex="1" parent="6HYaSR4sAWEqXXqdwUCk-1">
          <mxGeometry x="362.5" y="130" width="110" height="50" as="geometry" />
        </mxCell>
        <mxCell id="C12_iZIxtaX92C0jbHGQ-97" value="sendThankYou" style="shape=note2;boundedLbl=1;whiteSpace=wrap;html=1;size=25;verticalAlign=top;align=center;" vertex="1" parent="6HYaSR4sAWEqXXqdwUCk-1">
          <mxGeometry x="360" y="220" width="115" height="60" as="geometry" />
        </mxCell>
      </root>
    </mxGraphModel>
  </diagram>
</mxfile>
